<svg width="69" height="37" viewBox="0 0 69 37" fill="none" xmlns="http://www.w3.org/2000/svg">
<path d="M7.85242 0.00761926C9.89493 -0.0148432 11.8922 0.608986 13.5579 1.7897C13.6989 1.91351 13.8132 2.06464 13.894 2.23394C13.9747 2.40324 14.0201 2.58717 14.0274 2.77453C14.0211 2.99835 13.9553 3.21649 13.837 3.40669C13.7187 3.59688 13.552 3.75233 13.3539 3.8572C13.1558 3.96208 12.9334 4.01261 12.7094 4.00367C12.4854 3.99472 12.2677 3.92661 12.0787 3.80627C10.937 2.91457 9.51112 2.46489 8.06372 2.54005C7.37421 2.53128 6.69047 2.66636 6.05623 2.93665C5.42199 3.20694 4.85123 3.60648 4.38049 4.10972C3.90975 4.61295 3.54939 5.20879 3.32247 5.8591C3.09554 6.50941 3.00708 7.19987 3.06269 7.88629C3.00923 8.56551 3.10025 9.24833 3.32977 9.88992C3.5593 10.5315 3.92212 11.1174 4.39442 11.609C4.86673 12.1006 5.43785 12.4869 6.07024 12.7425C6.70263 12.998 7.38199 13.1171 8.06372 13.0918C9.50923 13.1823 10.9378 12.7401 12.0787 11.8491C12.3443 11.6765 12.6658 11.6117 12.9777 11.6678C13.2895 11.7239 13.5682 11.8966 13.7569 12.1509C13.9456 12.4051 14.03 12.7216 13.993 13.0359C13.956 13.3502 13.8004 13.6386 13.5579 13.8422C11.9453 15.1264 9.91026 15.762 7.85242 15.6243C6.81305 15.692 5.77111 15.539 4.79525 15.1754C3.81939 14.8117 2.93178 14.2457 2.19085 13.5147C1.44993 12.7836 0.872497 11.904 0.496664 10.9338C0.12083 9.96369 -0.0448904 8.92504 0.0103932 7.88629C-0.0430432 6.84157 0.122854 5.79723 0.497416 4.82031C0.871978 3.8434 1.44692 2.95548 2.18537 2.21358C2.92382 1.47168 3.80945 0.892186 4.7854 0.512289C5.76134 0.132391 6.80602 -0.0395092 7.85242 0.00761926Z" fill="#102770"/>
<path d="M29.546 10.4421H20.7413V13.8421C20.7487 14.0349 20.7149 14.2271 20.6422 14.4059C20.5695 14.5846 20.4595 14.7459 20.3196 14.879C20.1797 15.0121 20.0131 15.1139 19.8308 15.1777C19.6484 15.2415 19.4546 15.2658 19.2621 15.249C19.0698 15.2703 18.8751 15.2489 18.692 15.1865C18.509 15.124 18.342 15.0219 18.2029 14.8875C18.0639 14.7531 17.9562 14.5898 17.8877 14.4091C17.8191 14.2283 17.7914 14.0348 17.8064 13.8421V7.46414C17.8064 5.51762 18.5806 3.65083 19.9588 2.27443C21.337 0.898037 23.2063 0.124786 25.1554 0.124786C27.1044 0.124786 28.9737 0.898037 30.3519 2.27443C31.7301 3.65083 32.5043 5.51762 32.5043 7.46414V13.8421C32.5193 14.0348 32.4916 14.2283 32.423 14.4091C32.3545 14.5898 32.2469 14.7531 32.1078 14.8875C31.9688 15.0219 31.8017 15.124 31.6186 15.1865C31.4356 15.2489 31.2409 15.2703 31.0486 15.249C30.8543 15.2694 30.6578 15.2477 30.4726 15.1855C30.2874 15.1233 30.1178 15.022 29.9753 14.8886C29.8327 14.7551 29.7206 14.5926 29.6465 14.412C29.5724 14.2315 29.5381 14.0371 29.546 13.8421V10.4421ZM20.7413 8.23794H29.546V7.46414C29.546 4.15791 27.8789 2.63377 25.1554 2.63377C22.4318 2.63377 20.7413 4.15791 20.7413 7.46414V8.23794Z" fill="#102770"/>
<path d="M41.7099 15.4602C39.8778 15.4972 38.0595 15.1372 36.3801 14.405C36.1482 14.3399 35.9433 14.2023 35.7954 14.0124C35.6475 13.8225 35.5644 13.5903 35.5584 13.3498C35.5606 13.148 35.6129 12.95 35.7106 12.7734C35.8083 12.5968 35.9484 12.4472 36.1183 12.3379C36.2882 12.2287 36.4825 12.1633 36.6839 12.1476C36.8853 12.1318 37.0875 12.1662 37.2723 12.2477C38.6787 12.8668 40.1965 13.1939 41.7334 13.2091C44.0813 13.2091 45.8657 12.576 45.8657 10.8643C45.8657 7.22976 36.0514 9.99667 36.0514 4.32215C36.0514 0.38282 40.2542 0.031089 42.4612 0.031089C44.1977 -0.0293774 45.9271 0.28245 47.5327 0.945576C47.7666 1.02262 47.9709 1.16976 48.1179 1.36697C48.265 1.56418 48.3476 1.80187 48.3545 2.04765C48.3523 2.23386 48.3049 2.41674 48.2162 2.58055C48.1275 2.74437 48.0003 2.8842 47.8455 2.98803C47.6908 3.09185 47.5131 3.15655 47.3277 3.17655C47.1423 3.19655 46.9548 3.17124 46.7814 3.10283C45.3963 2.59969 43.935 2.33795 42.4612 2.32902C41.0995 2.32902 39.0333 2.51662 39.0333 4.06422C39.0333 7.3001 48.8476 4.74423 48.8476 10.7001C48.8476 14.616 44.8326 15.4602 41.7099 15.4602Z" fill="#102770"/>
<path d="M64.1546 8.98829H55.2091V13.8421C55.22 14.0338 55.1894 14.2255 55.1194 14.4043C55.0495 14.5831 54.9418 14.7448 54.8036 14.8783C54.6655 15.0117 54.5002 15.114 54.319 15.1779C54.1377 15.2419 53.9448 15.2662 53.7534 15.249C53.5591 15.2694 53.3626 15.2477 53.1774 15.1855C52.9922 15.1233 52.8226 15.0221 52.68 14.8886C52.5375 14.7551 52.4254 14.5926 52.3513 14.412C52.2772 14.2315 52.2429 14.0371 52.2507 13.8421V1.74272C52.2399 1.54491 52.2717 1.3471 52.3441 1.16264C52.4164 0.978189 52.5276 0.81141 52.6701 0.673574C52.8125 0.535737 52.983 0.430067 53.1699 0.363706C53.3568 0.297345 53.5558 0.271843 53.7534 0.288927C53.9481 0.274979 54.1436 0.30302 54.3266 0.371148C54.5095 0.439275 54.6757 0.545887 54.8137 0.683771C54.9518 0.821655 55.0585 0.98759 55.1268 1.1703C55.195 1.35301 55.223 1.54822 55.2091 1.74272V6.17449H64.1546V1.74272C64.1442 1.54704 64.1755 1.3514 64.2465 1.16871C64.3174 0.986019 64.4264 0.820467 64.5663 0.683019C64.7061 0.545572 64.8736 0.439356 65.0577 0.371416C65.2417 0.303477 65.4381 0.275364 65.6338 0.288927C65.8295 0.27088 66.0268 0.296097 66.2116 0.362775C66.3964 0.429454 66.5643 0.535962 66.7032 0.674737C66.8422 0.813511 66.9488 0.981138 67.0156 1.16572C67.0824 1.3503 67.1076 1.54729 67.0895 1.74272V13.8421C67.0442 14.1989 66.8702 14.5269 66.6001 14.7647C66.3299 15.0024 65.9822 15.1336 65.6221 15.1336C65.262 15.1336 64.9143 15.0024 64.6441 14.7647C64.374 14.5269 64.1999 14.1989 64.1546 13.8421V8.98829Z" fill="#102770"/>
<path d="M7.85242 20.7124C9.89234 20.6831 11.8893 21.2987 13.5579 22.4711C13.6996 22.5993 13.8141 22.7546 13.8948 22.9278C13.9754 23.1009 14.0205 23.2885 14.0274 23.4793C14.0211 23.7032 13.9553 23.9213 13.837 24.1115C13.7187 24.3017 13.552 24.4571 13.3539 24.562C13.1558 24.6669 12.9334 24.7174 12.7094 24.7085C12.4854 24.6995 12.2677 24.6314 12.0787 24.5111C10.9403 23.611 9.51408 23.1529 8.06372 23.2214C7.37524 23.2162 6.69316 23.3537 6.0606 23.6252C5.42804 23.8967 4.85878 24.2963 4.38876 24.7988C3.91875 25.3012 3.55821 25.8956 3.32995 26.5443C3.1017 27.193 3.01071 27.882 3.06269 28.5676C3.00573 29.2487 3.09412 29.9341 3.32207 30.5786C3.55002 31.223 3.91231 31.8118 4.385 32.306C4.85769 32.8003 5.43003 33.1887 6.06418 33.4457C6.69833 33.7026 7.37984 33.8222 8.06372 33.7966C9.50923 33.8871 10.9378 33.4449 12.0787 32.5539C12.3415 32.4084 12.6482 32.3629 12.942 32.4256C13.2359 32.4883 13.4971 32.6552 13.6773 32.8952C13.8576 33.1353 13.9449 33.4324 13.9229 33.7317C13.9009 34.031 13.7713 34.3123 13.5579 34.5235C11.9497 35.816 9.91135 36.4527 7.85242 36.3056C6.81305 36.3734 5.77111 36.2203 4.79525 35.8567C3.81939 35.4931 2.93178 34.9271 2.19085 34.196C1.44993 33.4649 0.872497 32.5853 0.496664 31.6152C0.12083 30.645 -0.0448904 29.6064 0.0103932 28.5676C-0.043317 27.5239 0.122564 26.4806 0.497345 25.5048C0.872125 24.529 1.44749 23.6425 2.18634 22.9024C2.92519 22.1624 3.81113 21.5851 4.78705 21.2079C5.76296 20.8307 6.80718 20.6619 7.85242 20.7124Z" fill="#102770"/>
<path d="M25.1802 36.3056C23.6526 36.223 22.1828 35.6946 20.9529 34.7859C19.723 33.8772 18.7871 32.6282 18.2611 31.1935C17.735 29.7587 17.6421 28.2014 17.9936 26.7145C18.3452 25.2275 19.1258 23.8761 20.2388 22.8279C21.3518 21.7797 22.7483 21.0806 24.2553 20.8172C25.7623 20.5539 27.3135 20.7379 28.7168 21.3464C30.1201 21.9549 31.3139 22.9612 32.1501 24.2406C32.9863 25.52 33.4284 27.0163 33.4214 28.5442C33.4446 29.6101 33.2435 30.6691 32.8312 31.6526C32.4188 32.6361 31.8045 33.5222 31.0277 34.2538C30.251 34.9853 29.3292 35.5459 28.322 35.8993C27.3147 36.2527 26.2444 36.3912 25.1802 36.3056ZM25.1802 23.2214C24.1271 23.1981 23.0908 23.4885 22.2034 24.0554C21.316 24.6223 20.6177 25.4402 20.1973 26.4049C19.777 27.3695 19.6537 28.4373 19.8431 29.4722C20.0325 30.5071 20.526 31.4623 21.2609 32.2161C21.9957 32.9699 22.9386 33.4882 23.9694 33.705C25.0002 33.9218 26.0723 33.8273 27.0492 33.4335C28.026 33.0397 28.8634 32.3644 29.4546 31.4937C30.0458 30.623 30.3642 29.5962 30.3691 28.5442C30.4158 27.8451 30.3147 27.1441 30.0723 26.4866C29.83 25.8291 29.4518 25.2299 28.9625 24.7279C28.4731 24.2259 27.8834 23.8323 27.2318 23.5728C26.5802 23.3133 25.8812 23.1935 25.1802 23.2214Z" fill="#102770"/>
<path d="M48.4714 28.1455C48.4714 24.8628 46.8043 23.4558 44.0573 23.4558C41.3102 23.4558 39.6667 24.98 39.6667 28.1455V34.5235C39.6741 34.7194 39.6397 34.9146 39.5658 35.0962C39.4919 35.2778 39.3802 35.4417 39.2381 35.5769C39.0961 35.7121 38.9268 35.8157 38.7417 35.8807C38.5565 35.9457 38.3596 35.9706 38.164 35.9539C37.9705 35.9714 37.7754 35.9467 37.5924 35.8813C37.4094 35.816 37.2429 35.7117 37.1043 35.5755C36.9658 35.4394 36.8586 35.2748 36.7902 35.0931C36.7219 34.9114 36.6939 34.7171 36.7083 34.5235V28.1455C36.7083 27.1817 36.8984 26.2273 37.2677 25.3369C37.6371 24.4464 38.1784 23.6374 38.8608 22.9558C39.5432 22.2743 40.3533 21.7337 41.245 21.3649C42.1366 20.996 43.0922 20.8062 44.0573 20.8062C45.0224 20.8062 45.978 20.996 46.8696 21.3649C47.7612 21.7337 48.5714 22.2743 49.2538 22.9558C49.9362 23.6374 50.4775 24.4464 50.8469 25.3369C51.2162 26.2273 51.4063 27.1817 51.4063 28.1455V34.5235C51.4207 34.7171 51.3927 34.9114 51.3244 35.0931C51.256 35.2748 51.1488 35.4394 51.0102 35.5755C50.8717 35.7117 50.7052 35.816 50.5222 35.8813C50.3392 35.9467 50.1441 35.9714 49.9506 35.9539C49.756 35.971 49.5601 35.9461 49.376 35.8809C49.192 35.8158 49.0241 35.7118 48.8838 35.5762C48.7435 35.4405 48.634 35.2763 48.5629 35.0947C48.4917 34.913 48.4605 34.7182 48.4714 34.5235V28.1455Z" fill="#102770"/>
<path d="M65.8928 21.8382C65.9977 21.6104 66.1669 21.4181 66.3796 21.2848C66.5922 21.1515 66.8392 21.0831 67.0902 21.0878C68.0529 21.0878 69.0155 21.9085 68.452 23.0106L62.5588 34.9458C62.4353 35.2541 62.2211 35.5178 61.9444 35.702C61.6677 35.8863 61.3416 35.9823 61.0091 35.9775C60.6616 35.9985 60.3162 35.9103 60.0215 35.7252C59.7267 35.5402 59.4973 35.2676 59.3656 34.9458L53.5428 23.0809C52.9558 21.9788 53.9654 21.0878 54.975 21.0878C55.2341 21.0876 55.4881 21.1601 55.7081 21.2968C55.928 21.4336 56.1052 21.6293 56.2194 21.8616L60.2578 30.7251C60.553 31.3798 60.804 32.0535 61.0091 32.7417C61.2119 32.0495 61.471 31.3751 61.7839 30.7251L65.8928 21.8382Z" fill="#102770"/>
</svg>
